<svg width="16" height="12" viewBox="0 0 16 12" fill="none" xmlns="http://www.w3.org/2000/svg">
<path opacity="0.4" d="M16 10.5V11.5C16 11.6326 15.9473 11.7598 15.8536 11.8536C15.7598 11.9473 15.6326 12 15.5 12H1C0.734784 12 0.48043 11.8946 0.292893 11.7071C0.105357 11.5196 0 11.2652 0 11V0.5C0 0.367392 0.0526784 0.240215 0.146447 0.146447C0.240215 0.0526785 0.367392 0 0.5 0H1.5C1.63261 0 1.75979 0.0526785 1.85355 0.146447C1.94732 0.240215 2 0.367392 2 0.5V10H15.5C15.6326 10 15.7598 10.0527 15.8536 10.1464C15.9473 10.2402 16 10.3674 16 10.5Z" fill="#213F7D"/>
</svg>
